<mxfile host="app.diagrams.net" agent="Mozilla/5.0 (Windows NT 10.0; Win64; x64) AppleWebKit/537.36 (KHTML, like Gecko) Chrome/128.0.0.0 Safari/537.36" version="24.7.14">
  <diagram name="Page-1" id="wyRw4nGdcyntfbPrI7tr">
    <mxGraphModel dx="1432" dy="786" grid="1" gridSize="10" guides="1" tooltips="1" connect="1" arrows="1" fold="1" page="1" pageScale="1" pageWidth="1500" pageHeight="2000" math="0" shadow="0">
      <root>
        <mxCell id="0" />
        <mxCell id="1" parent="0" />
        <mxCell id="9Yuh6y67yeQpeP_uYrxC-8" style="edgeStyle=orthogonalEdgeStyle;rounded=0;orthogonalLoop=1;jettySize=auto;html=1;exitX=0;exitY=0;exitDx=120;exitDy=50;exitPerimeter=0;entryX=0;entryY=0.5;entryDx=0;entryDy=0;" edge="1" parent="1" source="9Yuh6y67yeQpeP_uYrxC-2" target="9Yuh6y67yeQpeP_uYrxC-7">
          <mxGeometry relative="1" as="geometry" />
        </mxCell>
        <mxCell id="9Yuh6y67yeQpeP_uYrxC-2" value="Client" style="shape=cube;whiteSpace=wrap;html=1;boundedLbl=1;backgroundOutline=1;darkOpacity=0.05;darkOpacity2=0.1;" vertex="1" parent="1">
          <mxGeometry x="140" y="50" width="120" height="80" as="geometry" />
        </mxCell>
        <mxCell id="9Yuh6y67yeQpeP_uYrxC-18" style="edgeStyle=orthogonalEdgeStyle;rounded=0;orthogonalLoop=1;jettySize=auto;html=1;exitX=0.5;exitY=1;exitDx=0;exitDy=0;entryX=1;entryY=0.5;entryDx=0;entryDy=0;" edge="1" parent="1" source="9Yuh6y67yeQpeP_uYrxC-4" target="9Yuh6y67yeQpeP_uYrxC-15">
          <mxGeometry relative="1" as="geometry" />
        </mxCell>
        <mxCell id="9Yuh6y67yeQpeP_uYrxC-4" value="" style="shape=image;html=1;verticalLabelPosition=bottom;verticalAlign=top;imageAspect=0;image=img/clipart/Gear_128x128.png" vertex="1" parent="1">
          <mxGeometry x="1020" y="98" width="90" height="90" as="geometry" />
        </mxCell>
        <mxCell id="9Yuh6y67yeQpeP_uYrxC-6" value="post(file)" style="whiteSpace=wrap;html=1;" vertex="1" parent="1">
          <mxGeometry x="350" y="30" width="120" height="60" as="geometry" />
        </mxCell>
        <mxCell id="9Yuh6y67yeQpeP_uYrxC-11" style="edgeStyle=orthogonalEdgeStyle;rounded=0;orthogonalLoop=1;jettySize=auto;html=1;exitX=1;exitY=0.5;exitDx=0;exitDy=0;" edge="1" parent="1" source="9Yuh6y67yeQpeP_uYrxC-7" target="9Yuh6y67yeQpeP_uYrxC-4">
          <mxGeometry relative="1" as="geometry" />
        </mxCell>
        <mxCell id="9Yuh6y67yeQpeP_uYrxC-36" value="" style="edgeStyle=orthogonalEdgeStyle;rounded=0;orthogonalLoop=1;jettySize=auto;html=1;" edge="1" parent="1" source="9Yuh6y67yeQpeP_uYrxC-7" target="9Yuh6y67yeQpeP_uYrxC-20">
          <mxGeometry relative="1" as="geometry" />
        </mxCell>
        <mxCell id="9Yuh6y67yeQpeP_uYrxC-7" value="response" style="shape=process;whiteSpace=wrap;html=1;backgroundOutline=1;" vertex="1" parent="1">
          <mxGeometry x="580" y="80" width="120" height="60" as="geometry" />
        </mxCell>
        <mxCell id="9Yuh6y67yeQpeP_uYrxC-9" style="edgeStyle=orthogonalEdgeStyle;rounded=0;orthogonalLoop=1;jettySize=auto;html=1;exitX=0.5;exitY=1;exitDx=0;exitDy=0;entryX=0;entryY=0;entryDx=70;entryDy=80;entryPerimeter=0;" edge="1" parent="1" source="9Yuh6y67yeQpeP_uYrxC-7" target="9Yuh6y67yeQpeP_uYrxC-2">
          <mxGeometry relative="1" as="geometry" />
        </mxCell>
        <mxCell id="9Yuh6y67yeQpeP_uYrxC-10" value="Hey i received" style="text;html=1;align=center;verticalAlign=middle;resizable=0;points=[];autosize=1;strokeColor=none;fillColor=none;" vertex="1" parent="1">
          <mxGeometry x="350" y="158" width="100" height="30" as="geometry" />
        </mxCell>
        <mxCell id="9Yuh6y67yeQpeP_uYrxC-12" value="buffers" style="text;html=1;align=center;verticalAlign=middle;resizable=0;points=[];autosize=1;strokeColor=none;fillColor=none;" vertex="1" parent="1">
          <mxGeometry x="770" y="88" width="60" height="30" as="geometry" />
        </mxCell>
        <mxCell id="9Yuh6y67yeQpeP_uYrxC-13" value="parserWorker" style="whiteSpace=wrap;html=1;" vertex="1" parent="1">
          <mxGeometry x="1010" y="30" width="120" height="60" as="geometry" />
        </mxCell>
        <mxCell id="9Yuh6y67yeQpeP_uYrxC-15" value="Server-tiles" style="shape=hexagon;perimeter=hexagonPerimeter2;whiteSpace=wrap;html=1;fixedSize=1;" vertex="1" parent="1">
          <mxGeometry x="130" y="520" width="190" height="140" as="geometry" />
        </mxCell>
        <mxCell id="9Yuh6y67yeQpeP_uYrxC-17" value="&lt;b&gt;&lt;font style=&quot;font-size: 24px;&quot;&gt;derivative&lt;/font&gt;&lt;/b&gt;" style="text;html=1;align=center;verticalAlign=middle;resizable=0;points=[];autosize=1;strokeColor=none;fillColor=none;" vertex="1" parent="1">
          <mxGeometry x="510" y="10" width="140" height="40" as="geometry" />
        </mxCell>
        <mxCell id="9Yuh6y67yeQpeP_uYrxC-19" value="post" style="text;html=1;align=center;verticalAlign=middle;resizable=0;points=[];autosize=1;strokeColor=none;fillColor=none;" vertex="1" parent="1">
          <mxGeometry x="630" y="550" width="50" height="30" as="geometry" />
        </mxCell>
        <mxCell id="9Yuh6y67yeQpeP_uYrxC-20" value="in 1 second server can take 5 req, each has send 200mb" style="shape=process;whiteSpace=wrap;html=1;backgroundOutline=1;" vertex="1" parent="1">
          <mxGeometry x="490" y="250" width="120" height="60" as="geometry" />
        </mxCell>
      </root>
    </mxGraphModel>
  </diagram>
</mxfile>
